# xmcd
#
# Track frame offsets: 
#        150
#        38782
#        77027
#        110610
#        149185
#        182985
#
# Disc length: 3007 seconds
#
# Revision: 2
# Processed by: cddbd v1.5.2PL0 Copyright (c) Steve Scherf et al.
# Submitted via: ExactAudioCopy v0.99pb4
#
DISCID=560bbd06
DTITLE=Andreas Prittwitz y Varios - Concierto sobre las Olas
DYEAR=2000
DGENRE=New Age
TTITLE0=Aguas frías...
TTITLE1=El descanso...
TTITLE2=En la patagonia...
TTITLE3=Sin rumbo...
TTITLE4=Nada es igual...
TTITLE5=El lamento de la ballena...
EXTD=YEAR: 2002
EXTT0=Andreas Prittwitz
EXTT1=Osvi Grecco
EXTT2=Andreas Prittwitzz
EXTT3=Osvi Grecco/Andreas Prittwitz
EXTT4=Antonio Garcia de Diego
EXTT5=Mariano Díaz
PLAYORDER=
